<svg xmlns="http://www.w3.org/2000/svg" viewBox="0 0 503 504"><path d="M252 45c67 0 74 1 101 2 25 1 39 6 48 9a75 75 0 0147 47c4 9 8 22 9 47 1 27 2 35 2 102s-1 75-2 102c-1 25-6 38-9 47a81 81 0 01-47 47c-9 4-22 8-47 9-27 1-35 2-102 2s-75-1-102-2c-25-1-38-6-47-9a75 75 0 01-47-47c-3-9-8-22-9-47-1-27-2-35-2-102s1-75 2-102c1-25 6-38 9-47a75 75 0 0147-47c9-3 22-8 47-9 27-1 35-2 102-2m0-45c-68 0-77 1-104 2s-45 5-61 11a127 127 0 00-74 74c-6 16-10 34-11 61s-2 36-2 104 1 77 2 104 5 45 11 61a127 127 0 0074 74c16 6 34 10 61 11s36 2 104 2 77-1 104-2 45-5 61-11a130 130 0 0074-74c6-16 10-34 11-61l1-104-1-104c-1-27-5-45-11-61a127 127 0 00-74-74c-16-6-34-10-61-11s-36-2-104-2z"/><path d="M252 123a129 129 0 10129 129 129 129 0 00-129-129zm0 213a84 84 0 1184-84 84 84 0 01-84 84zM384 87a30 30 0 11-28 28 30 30 0 0128-28z"/></svg>